<svg xmlns="http://www.w3.org/2000/svg"  viewBox="0 0 64 64" width="16px" height="16px"><path fill="#bbdef9" d="M37.791,47.366c-0.177,0-0.355,0.031-0.527,0.096l-1.495,0.561l1.161-2.033 c0.366-0.641,0.211-1.454-0.366-1.916L34.42,42.36v-6.638c1.257-0.839,2-2.21,2-3.722c0-1.511-0.742-2.883-2-3.722V21.64 l2.145-1.716c0.577-0.461,0.732-1.274,0.365-1.915l-1.161-2.033l1.496,0.561c0.172,0.064,0.35,0.096,0.526,0.096 c0.424,0,0.838-0.18,1.128-0.511c0.411-0.469,0.489-1.144,0.196-1.695L33.244,3.419c-0.261-0.489-0.77-0.794-1.324-0.794 s-1.063,0.305-1.324,0.794l-5.871,11.008c-0.294,0.551-0.216,1.226,0.196,1.695c0.29,0.331,0.704,0.511,1.128,0.511 c0.176,0,0.355-0.031,0.526-0.096l1.496-0.561l-1.161,2.033c-0.366,0.641-0.211,1.454,0.365,1.915l2.145,1.716v6.637 c-1.258,0.84-2,2.211-2,3.722c0,1.511,0.742,2.882,2,3.722v6.638l-2.144,1.715c-0.577,0.461-0.732,1.274-0.366,1.916l1.161,2.033 l-1.495-0.561c-0.172-0.064-0.35-0.096-0.527-0.096c-0.424,0-0.838,0.18-1.128,0.511c-0.411,0.469-0.489,1.144-0.196,1.695 l5.871,11.009c0.261,0.489,0.77,0.794,1.324,0.794s1.063-0.305,1.324-0.794l5.871-11.009c0.294-0.551,0.216-1.226-0.196-1.695 C38.629,47.546,38.215,47.366,37.791,47.366z"/><path fill="#bbdef9" d="M56.39,38.608c-0.182-0.597-0.714-1.019-1.337-1.06c-0.033-0.002-0.066-0.003-0.099-0.003 c-0.585,0-1.121,0.341-1.365,0.879l-0.242,0.532l-0.399-1.463c-0.18-0.658-0.777-1.105-1.446-1.105 c-0.055,0-0.111,0.003-0.167,0.009l-2.041,0.227l-1.168-1.168l2.78-1.112c0.56-0.224,0.931-0.761,0.943-1.364 c0.011-0.603-0.339-1.154-0.891-1.399l-4.54-2.018c-0.134-0.059-0.267-0.125-0.4-0.197l3.276-3.276l2.042,0.227 c0.056,0.006,0.112,0.009,0.167,0.009c0.669,0,1.266-0.447,1.446-1.105l0.399-1.463l0.242,0.532 c0.245,0.538,0.78,0.879,1.365,0.879c0.033,0,0.066-0.001,0.099-0.003c0.623-0.041,1.155-0.463,1.337-1.06l2.742-9.009 c0.161-0.53,0.017-1.106-0.374-1.497c-0.286-0.285-0.669-0.439-1.061-0.439c-0.146,0-0.293,0.021-0.437,0.065l-9.009,2.742 c-0.597,0.182-1.019,0.714-1.06,1.337s0.308,1.206,0.876,1.464l0.532,0.242l-1.463,0.399c-0.713,0.194-1.178,0.879-1.096,1.613 l0.227,2.042l-3.17,3.17l-1.579-3.159c-0.256-0.511-0.777-0.829-1.341-0.829c-0.046,0-0.093,0.002-0.139,0.006 c-0.616,0.057-1.134,0.487-1.304,1.081l-1.093,3.826c-0.179,0.627,0.067,1.298,0.61,1.66l0.738,0.492 c0.23,0.154,0.368,0.41,0.368,0.687s-0.138,0.533-0.368,0.687c-0.461,0.308-0.753,0.799-0.805,1.347 c-0.055,0.535,0.137,1.073,0.527,1.463l0.34,0.34c0.207,0.207,0.287,0.488,0.22,0.772c-0.067,0.286-0.265,0.502-0.542,0.595 l-0.068,0.023c-0.756,0.258-1.176,1.064-0.957,1.832l1.031,3.606c0.17,0.595,0.688,1.024,1.304,1.081 c0.047,0.004,0.093,0.006,0.139,0.006c0.564,0,1.085-0.318,1.341-0.829l0.66-1.319c0.425-0.851,1.055-1.608,1.833-2.21 l2.256,2.256l-0.227,2.042c-0.082,0.734,0.384,1.419,1.096,1.613l1.462,0.398l-0.532,0.242c-0.568,0.258-0.917,0.841-0.876,1.464 s0.463,1.155,1.06,1.336l9.009,2.741c0.144,0.044,0.291,0.065,0.436,0.065c0.392,0,0.775-0.154,1.061-0.439 c0.392-0.392,0.536-0.967,0.374-1.497L56.39,38.608z"/><path fill="#bbdef9" d="M25.107,40.665L26.2,36.84c0.179-0.627-0.067-1.298-0.61-1.66l-0.738-0.492 c-0.231-0.154-0.369-0.411-0.369-0.688s0.138-0.534,0.368-0.688c0.459-0.305,0.753-0.796,0.805-1.346 c0.055-0.533-0.136-1.07-0.524-1.46l-0.343-0.343c-0.207-0.207-0.287-0.488-0.22-0.773c0.067-0.285,0.265-0.502,0.543-0.594 l0.063-0.021c0.758-0.257,1.18-1.063,0.961-1.833l-1.031-3.607c-0.17-0.595-0.688-1.024-1.304-1.081 c-0.047-0.004-0.093-0.006-0.139-0.006c-0.564,0-1.086,0.318-1.341,0.83l-0.66,1.32c-0.281,0.562-0.639,1.075-1.066,1.531 l-2.864-2.864l0.227-2.042c0.082-0.734-0.383-1.418-1.096-1.613l-1.463-0.399l0.532-0.242c0.568-0.258,0.917-0.841,0.876-1.464 c-0.041-0.623-0.463-1.155-1.06-1.337L6.74,13.226c-0.144-0.044-0.291-0.065-0.437-0.065c-0.392,0-0.775,0.154-1.061,0.439 c-0.392,0.392-0.536,0.967-0.374,1.497l2.742,9.009c0.182,0.597,0.714,1.019,1.337,1.06c0.033,0.002,0.066,0.003,0.099,0.003 c0.585,0,1.12-0.341,1.365-0.879l0.242-0.532l0.399,1.463c0.18,0.658,0.777,1.105,1.446,1.105c0.055,0,0.111-0.003,0.167-0.009 l2.042-0.227l2.04,2.041l-3.813,1.525c-0.56,0.224-0.931,0.761-0.943,1.364c-0.011,0.603,0.339,1.154,0.891,1.399l4.174,1.855 l-2.35,2.35l-2.041-0.227c-0.056-0.006-0.112-0.009-0.167-0.009c-0.669,0-1.266,0.447-1.446,1.105l-0.399,1.463l-0.242-0.532 c-0.244-0.538-0.78-0.879-1.365-0.879c-0.033,0-0.066,0.001-0.099,0.003c-0.623,0.041-1.155,0.463-1.337,1.06l-2.742,9.008 c-0.161,0.53-0.017,1.106,0.374,1.497c0.285,0.286,0.669,0.439,1.061,0.439c0.146,0,0.293-0.021,0.437-0.065l9.009-2.741 c0.597-0.182,1.019-0.714,1.06-1.336c0.041-0.623-0.308-1.206-0.876-1.464l-0.532-0.242l1.462-0.398 c0.713-0.194,1.178-0.879,1.096-1.613l-0.227-2.042l2.62-2.62c0.088,0.145,0.17,0.293,0.244,0.441l1.726,3.453 c0.256,0.511,0.777,0.829,1.341,0.829c0.046,0,0.093-0.002,0.139-0.006C24.42,41.689,24.937,41.26,25.107,40.665z"/><g><path fill="#8d6c9f" d="M39.116,61.027l-1.791-0.89c-0.496-0.248-1.095-0.044-1.34,0.45 c-0.246,0.495-0.044,1.096,0.451,1.341l1.791,0.89c0.143,0.071,0.294,0.104,0.444,0.104c0.368,0,0.722-0.203,0.896-0.555 C39.812,61.873,39.611,61.272,39.116,61.027z"/><path fill="#8d6c9f" d="M41.341,56.55l-1.791-0.891c-0.496-0.247-1.095-0.045-1.341,0.45 c-0.246,0.494-0.044,1.095,0.45,1.341l1.791,0.891c0.143,0.071,0.295,0.104,0.444,0.104c0.368,0,0.722-0.203,0.896-0.555 C42.037,57.396,41.835,56.796,41.341,56.55z"/><path fill="#8d6c9f" d="M43.564,52.071l-1.791-0.89c-0.496-0.248-1.095-0.044-1.34,0.45 c-0.246,0.495-0.044,1.096,0.451,1.341l1.791,0.89c0.143,0.071,0.294,0.104,0.444,0.104c0.368,0,0.722-0.203,0.896-0.555 C44.261,52.917,44.059,52.316,43.564,52.071z"/><path fill="#8d6c9f" d="M20.436,11.929l1.791,0.89c0.143,0.071,0.294,0.104,0.444,0.104c0.368,0,0.722-0.204,0.896-0.555 c0.246-0.495,0.044-1.095-0.451-1.34l-1.791-0.89c-0.495-0.247-1.094-0.043-1.34,0.451S19.941,11.683,20.436,11.929z"/><path fill="#8d6c9f" d="M22.66,7.451l1.791,0.89c0.143,0.071,0.294,0.104,0.444,0.104c0.368,0,0.722-0.204,0.896-0.555 c0.246-0.495,0.044-1.095-0.451-1.34l-1.791-0.89c-0.495-0.247-1.094-0.044-1.34,0.451C21.963,6.605,22.165,7.205,22.66,7.451z"/><path fill="#8d6c9f" d="M24.884,2.973l1.791,0.89c0.143,0.071,0.294,0.104,0.444,0.104c0.368,0,0.722-0.204,0.896-0.555 c0.246-0.495,0.044-1.095-0.451-1.34l-1.791-0.89c-0.495-0.247-1.094-0.043-1.34,0.451C24.188,2.127,24.389,2.727,24.884,2.973z"/><path fill="#8d6c9f" d="M40.752,46.341c-0.275-0.313-0.716-0.425-1.103-0.277l-2.679,1.005l0.898-1.572 c0.244-0.428,0.141-0.97-0.243-1.277L35,42.119v-6.14c1.246-0.939,2-2.416,2-3.979s-0.754-3.041-2-3.979v-6.14l2.625-2.1 c0.385-0.308,0.488-0.849,0.244-1.277l-0.898-1.572l2.679,1.005c0.387,0.146,0.828,0.035,1.103-0.277 c0.274-0.312,0.326-0.763,0.13-1.13l-8-15c-0.348-0.651-1.417-0.651-1.765,0l-8,15c-0.196,0.367-0.144,0.817,0.13,1.13 c0.274,0.313,0.713,0.423,1.103,0.277l2.679-1.005l-0.898,1.572c-0.245,0.428-0.141,0.969,0.244,1.277L29,21.88v6.14 c-1.246,0.939-2,2.416-2,3.979c0,1.563,0.754,3.04,2,3.979v6.14l-2.625,2.1c-0.384,0.308-0.487,0.85-0.243,1.277l0.898,1.572 l-2.679-1.005c-0.39-0.147-0.829-0.036-1.103,0.277c-0.274,0.312-0.326,0.763-0.13,1.13l8,15C31.292,62.797,31.631,63,32,63 s0.708-0.203,0.882-0.529l8-15C41.078,47.104,41.026,46.653,40.752,46.341z M32,59.875l-5.871-11.009l2.792,1.048 c0.393,0.148,0.839,0.033,1.112-0.288c0.273-0.321,0.316-0.778,0.107-1.145l-1.848-3.235l2.333-1.865 C30.862,43.19,31,42.903,31,42.6v-7.154c0-0.355-0.189-0.685-0.497-0.864C29.562,34.033,29,33.068,29,32s0.562-2.033,1.503-2.581 C30.811,29.24,31,28.911,31,28.555V21.4c0-0.304-0.138-0.591-0.375-0.781l-2.332-1.866l1.848-3.235 c0.209-0.366,0.167-0.824-0.107-1.145c-0.273-0.321-0.72-0.437-1.112-0.288l-2.792,1.047L32,4.125l5.871,11.008l-2.792-1.047 c-0.394-0.148-0.839-0.033-1.112,0.288s-0.316,0.779-0.107,1.145l1.848,3.235l-2.332,1.866C33.138,20.809,33,21.096,33,21.4v7.155 c0,0.356,0.189,0.685,0.497,0.864C34.438,29.967,35,30.932,35,32s-0.562,2.033-1.503,2.581C33.189,34.761,33,35.09,33,35.445V42.6 c0,0.304,0.138,0.591,0.375,0.781l2.333,1.865l-1.848,3.235c-0.209,0.366-0.167,0.823,0.107,1.145s0.719,0.437,1.112,0.288 l2.792-1.048L32,59.875z"/><path fill="#8d6c9f" d="M56.176,35.929c-0.121-0.398-0.476-0.68-0.891-0.707c-0.41-0.019-0.804,0.205-0.976,0.584 l-0.765,1.683l-0.26-0.952c-0.129-0.475-0.594-0.781-1.075-0.73l-2.653,0.295l-0.461-0.462l4.276-1.71 c0.373-0.149,0.621-0.508,0.628-0.91c0.007-0.401-0.227-0.77-0.594-0.933l-6.454-2.868l2.604-2.604l2.653,0.295 c0.48,0.057,0.945-0.255,1.075-0.73l0.26-0.952l0.765,1.682c0.172,0.379,0.565,0.61,0.976,0.584 c0.415-0.027,0.77-0.309,0.891-0.707l4.059-13.336c0.107-0.353,0.012-0.737-0.25-0.998c-0.262-0.261-0.646-0.358-0.998-0.25 L45.65,16.262c-0.398,0.121-0.68,0.476-0.707,0.891s0.206,0.804,0.584,0.976l1.682,0.765l-0.952,0.26 c-0.475,0.13-0.785,0.586-0.73,1.075l0.295,2.653l-2.51,2.51l-2.418-4.837c-0.185-0.369-0.573-0.588-0.987-0.548 c-0.41,0.038-0.755,0.324-0.869,0.721l-2,7c-0.12,0.418,0.045,0.866,0.407,1.107l1.346,0.897c0.126,0.084,0.145,0.206,0.145,0.271 s-0.019,0.187-0.145,0.271c-0.583,0.388-0.956,1.009-1.025,1.706c-0.069,0.696,0.175,1.379,0.67,1.874l0.34,0.34 c0.111,0.111,0.102,0.238,0.086,0.305s-0.064,0.185-0.214,0.234l-0.965,0.321c-0.508,0.17-0.792,0.709-0.646,1.224l2,7 c0.113,0.396,0.458,0.684,0.869,0.722c0.41,0.035,0.803-0.181,0.987-0.549l1.81-3.619c0.329-0.658,0.79-1.255,1.354-1.758 l1.765,1.764l-0.295,2.653c-0.055,0.489,0.255,0.945,0.73,1.075l0.952,0.26l-1.682,0.765c-0.378,0.172-0.611,0.561-0.584,0.976 s0.309,0.771,0.707,0.892l13.336,4.059c0.096,0.028,0.194,0.043,0.291,0.043c0.261,0,0.517-0.103,0.707-0.293 c0.261-0.261,0.357-0.645,0.25-0.998L56.176,35.929z M48.767,45.312l1.793-0.815c0.383-0.174,0.617-0.57,0.583-0.99 c-0.034-0.42-0.327-0.773-0.733-0.885l-2.799-0.763l0.253-2.281c0.034-0.302-0.072-0.603-0.287-0.817l-2.728-2.728 c-0.339-0.339-0.872-0.39-1.27-0.12c-1.144,0.778-2.065,1.822-2.665,3.021l-0.66,1.319l-1.031-3.606l0.057-0.02 c0.771-0.257,1.342-0.883,1.528-1.674c0.186-0.79-0.045-1.604-0.619-2.177l-0.34-0.34c-0.095-0.095-0.1-0.205-0.094-0.263 c0.005-0.058,0.032-0.164,0.144-0.239c0.648-0.433,1.036-1.156,1.036-1.935s-0.387-1.502-1.036-1.935l-0.738-0.492l1.093-3.826 l1.727,3.455c0.048,0.096,0.105,0.187,0.208,0.346c0.154,0.272,0.426,0.457,0.735,0.5c0.309,0.041,0.621-0.062,0.843-0.284 l3.808-3.808c0.215-0.215,0.32-0.516,0.287-0.817l-0.253-2.281l2.799-0.764c0.407-0.111,0.7-0.465,0.733-0.885 s-0.199-0.816-0.583-0.99l-1.792-0.815l9.009-2.742l-2.742,9.009l-0.815-1.792c-0.174-0.384-0.576-0.62-0.99-0.583 c-0.42,0.034-0.774,0.327-0.885,0.733l-0.764,2.799L49.3,24.573c-0.298-0.035-0.603,0.072-0.817,0.287l-3.898,3.898 c-0.213,0.212-0.318,0.509-0.288,0.809c0.03,0.299,0.194,0.568,0.445,0.734c0.387,0.254,0.762,0.461,1.147,0.633l4.54,2.018 l-3.484,1.394c-0.312,0.125-0.541,0.398-0.608,0.728c-0.068,0.329,0.035,0.671,0.272,0.908l1.874,1.874 c0.214,0.215,0.518,0.319,0.817,0.287l2.281-0.254l0.764,2.8c0.111,0.406,0.465,0.699,0.885,0.733 c0.415,0.033,0.816-0.199,0.99-0.583l0.815-1.793l2.742,9.008L48.767,45.312z"/><path fill="#8d6c9f" d="M23.105,43.447c0.185,0.369,0.572,0.586,0.987,0.549c0.41-0.038,0.755-0.325,0.869-0.722l2-7 c0.12-0.418-0.045-0.865-0.407-1.106l-1.345-0.896c-0.126-0.084-0.146-0.206-0.146-0.271s0.019-0.188,0.145-0.271 c0.583-0.388,0.956-1.01,1.025-1.705c0.069-0.696-0.175-1.379-0.67-1.874l-0.34-0.34c-0.111-0.112-0.102-0.239-0.086-0.305 c0.016-0.066,0.064-0.185,0.214-0.234l0.965-0.322c0.508-0.169,0.792-0.708,0.645-1.224l-2-7 c-0.113-0.396-0.458-0.683-0.869-0.721c-0.409-0.041-0.802,0.18-0.987,0.548l-1.809,3.619c-0.182,0.363-0.398,0.705-0.647,1.021 l-2.313-2.312l0.295-2.653c0.055-0.489-0.255-0.945-0.73-1.075l-0.952-0.26l1.682-0.765c0.379-0.172,0.611-0.561,0.584-0.976 c-0.027-0.415-0.309-0.77-0.707-0.891L5.172,12.202c-0.352-0.108-0.736-0.012-0.998,0.25c-0.261,0.261-0.357,0.645-0.25,0.998 l4.059,13.336c0.121,0.398,0.476,0.68,0.891,0.707c0.412,0.026,0.804-0.205,0.976-0.584l0.765-1.682l0.26,0.952 c0.129,0.476,0.592,0.789,1.075,0.73l2.653-0.295l1.334,1.334l-5.309,2.123c-0.373,0.149-0.621,0.508-0.628,0.91 s0.227,0.77,0.594,0.933l5.669,2.527l-1.66,1.66l-2.653-0.295c-0.485-0.053-0.946,0.256-1.075,0.73l-0.26,0.952L9.85,35.806 c-0.172-0.379-0.564-0.604-0.976-0.584c-0.415,0.027-0.77,0.309-0.891,0.707L3.924,49.265c-0.108,0.354-0.012,0.737,0.25,0.998 c0.19,0.19,0.446,0.293,0.707,0.293c0.097,0,0.195-0.015,0.291-0.043l13.336-4.059c0.398-0.121,0.68-0.477,0.707-0.892 c0.027-0.415-0.206-0.804-0.584-0.976l-1.682-0.765l0.952-0.26c0.475-0.13,0.785-0.586,0.73-1.075l-0.295-2.653l1.975-1.976 L23.105,43.447z M16.583,38.76c-0.215,0.215-0.32,0.516-0.287,0.817l0.253,2.281l-2.799,0.763c-0.406,0.111-0.7,0.465-0.733,0.885 c-0.034,0.42,0.199,0.816,0.583,0.99l1.793,0.815l-9.009,2.741l2.742-9.008l0.815,1.793c0.174,0.383,0.573,0.615,0.99,0.583 c0.42-0.034,0.774-0.327,0.885-0.733l0.764-2.8l2.281,0.254c0.305,0.034,0.603-0.072,0.817-0.287l3.014-3.014 c0.227-0.227,0.301-0.565,0.25-0.883c-0.051-0.316-0.28-0.606-0.567-0.751c-0.086-0.052-0.174-0.101-0.263-0.141l-4.54-2.018 l4.517-1.807c0.312-0.125,0.541-0.398,0.608-0.728c0.068-0.33-0.035-0.67-0.272-0.908l-2.747-2.747 c-0.214-0.215-0.518-0.323-0.817-0.287l-2.281,0.253l-0.764-2.799c-0.111-0.407-0.465-0.7-0.885-0.733 c-0.416-0.036-0.816,0.199-0.99,0.583L9.125,23.67l-2.742-9.009l9.009,2.742L13.6,18.218c-0.384,0.174-0.617,0.57-0.583,0.99 s0.327,0.774,0.733,0.885l2.799,0.764l-0.253,2.281c-0.034,0.302,0.072,0.603,0.287,0.817l3.386,3.386 c0.379,0.38,0.991,0.392,1.385,0.028c0.714-0.659,1.296-1.433,1.731-2.301l0.66-1.32l1.031,3.607l-0.056,0.019 c-0.771,0.257-1.342,0.882-1.528,1.672c-0.187,0.79,0.044,1.604,0.619,2.179l0.34,0.34c0.095,0.095,0.1,0.205,0.094,0.262 c-0.005,0.057-0.032,0.164-0.144,0.239c-0.648,0.433-1.035,1.156-1.035,1.936s0.387,1.503,1.036,1.936l0.738,0.492l-1.093,3.825 l-1.727-3.454c-0.196-0.391-0.432-0.775-0.701-1.144c-0.172-0.235-0.439-0.384-0.73-0.406c-0.288-0.025-0.577,0.083-0.783,0.29 L16.583,38.76z"/></g></svg>